<svg xmlns="http://www.w3.org/2000/svg" xmlns:xlink="http://www.w3.org/1999/xlink"><symbol id="dzen-icon" viewBox="0 0 20 20"><g fill="none">
<path d="M19.5586 9.55711C19.5604 9.55711 19.5617 9.55711 19.5634 9.55711C19.6852 9.55711 19.8014 9.50602 19.8839 9.41652C19.9677 9.3257 20.0092 9.20389 19.9983 9.08076C19.5599 4.25925 15.7429 0.440639 10.9212 0.00140703C10.7989 -0.00819844 10.6758 0.0315333 10.585 0.1158C10.4942 0.199629 10.4436 0.317951 10.4449 0.441512C10.5208 6.84924 11.3661 9.4676 19.5586 9.55711ZM19.5586 10.4426C11.3661 10.5321 10.5213 13.1504 10.4453 19.5581C10.444 19.6817 10.4946 19.8 10.5855 19.8839C10.6667 19.9585 10.7728 20 10.8819 20C10.895 20 10.9085 19.9996 10.9216 19.9983C15.7433 19.559 19.5604 15.7408 19.9983 10.9189C20.0092 10.7958 19.9681 10.674 19.8839 10.5831C19.7996 10.4923 19.6822 10.4474 19.5586 10.4426ZM9.04954 0.00359014C4.24316 0.455484 0.438304 4.27322 0.0021535 9.08163C-0.00876118 9.20476 0.032278 9.32658 0.116539 9.41739C0.199054 9.5069 0.315623 9.55754 0.436994 9.55754C0.43874 9.55754 0.440487 9.55754 0.442233 9.55754C8.60772 9.46367 9.45077 6.84662 9.52761 0.443259C9.52892 0.319697 9.47784 0.200939 9.38703 0.117109C9.29534 0.0332798 9.17266 -0.00776178 9.04954 0.00359014ZM0.441797 10.4421C0.306018 10.4268 0.199491 10.4915 0.116103 10.5823C0.0322781 10.6731 -0.00919773 10.7949 0.00171694 10.918C0.437867 15.7264 4.24316 19.5442 9.04954 19.9961C9.06308 19.9974 9.07705 19.9978 9.09058 19.9978C9.19973 19.9978 9.30538 19.9568 9.38659 19.8821C9.4774 19.7983 9.52848 19.6795 9.52717 19.556C9.45033 13.153 8.60772 10.536 0.441797 10.4421Z" fill="#F9FBFD"/>
</g></symbol><symbol id="icon-close" viewBox="0 0 20 20"><g fill="none"><path d="M.293 18.291a1 1 0 101.414 1.414L10 11.413l8.292 8.292a1 1 0 101.414-1.414l-8.292-8.292 8.292-8.292A1 1 0 1018.291.293L9.999 8.585 1.707.293A1 1 0 10.293 1.707L8.585 10 .293 18.291z"/></g></symbol><symbol id="logo" viewBox="0 0 70 38"><g fill="none">
<path fill-rule="evenodd" clip-rule="evenodd" d="M0.903517 31.125L14.6726 12.5429L18.4395 14.556L27.4026 0L32.9879 6.65881L35.0665 4.95532L43.1199 15.1755L48.8355 8.36191L64.8126 31.125L49.42 11.7689L47.0817 19.8984L49.225 26.3249L35.456 7.35558L35.3069 13.8279L43.1199 31.125L28.5064 4.33574L32.7282 18.8145L26.8181 4.72292L23.5706 14.0916L24.2198 7.97472L16.1013 30.0411L17.0753 20.75L13.6981 17.0338L0.903517 31.125Z"/>
<path fill-rule="evenodd" clip-rule="evenodd" d="M69.4414 34.0314C47.641 16.428 13.7091 40.6289 0 31.2961C15.0723 44.5215 50.3019 22.1644 69.4414 34.0314Z"/>
<path fill-rule="evenodd" clip-rule="evenodd" d="M70 35.4157C52.8956 24.5171 27.4568 39.6838 14.4189 36.1717C28.5467 43.0283 54.8482 27.8361 70 35.4157Z"/>
</g></symbol><symbol id="ok-icon" viewBox="0 0 12 20"><g fill="none">
<path d="M5.875 3.02543C7.07072 3.02543 8.04314 3.9842 8.04314 5.16312C8.04314 6.3385 7.07072 7.29726 5.875 7.29726C4.67928 7.29726 3.70687 6.3385 3.70687 5.16312C3.70687 3.9842 4.67928 3.02543 5.875 3.02543ZM5.875 10.3227C8.76345 10.3227 11.1117 8.00746 11.1117 5.16312C11.1117 2.31524 8.76345 0 5.875 0C2.98655 0 0.641942 2.31524 0.641942 5.16312C0.641942 8.00746 2.98655 10.3227 5.875 10.3227ZM7.99271 14.5342C9.05877 14.2927 10.0852 13.8772 11.0324 13.2913C11.7491 12.8474 11.9652 11.9135 11.515 11.2069C11.0612 10.4967 10.1176 10.2836 9.39732 10.7311C7.2544 12.0591 4.4956 12.0591 2.34908 10.7311C1.63237 10.2836 0.685162 10.4967 0.234968 11.2069C-0.215227 11.9135 0.000865602 12.8474 0.717575 13.2913C1.66478 13.8772 2.69123 14.2927 3.75729 14.5342L0.829223 17.4176C0.231365 18.007 0.231365 18.9658 0.829223 19.5552C1.13175 19.85 1.52072 19.9991 1.91329 19.9991C2.30586 19.9991 2.69843 19.85 3.00096 19.5552L5.875 16.7216L8.75264 19.5552C9.3505 20.1483 10.3193 20.1483 10.9208 19.5552C11.5186 18.9658 11.5186 18.007 10.9208 17.4176L7.99271 14.5342Z" fill="#F9FBFD"/>
</g></symbol></svg>
